<svg xmlns="http://www.w3.org/2000/svg" viewBox="0 0 512 512" style="width:256px;height:256px"><path d="M483.758 0H28.242C12.641 0 0 12.637 0 28.238V483.68C0 499.359 12.641 512 28.242 512h219.679V340.957h-74.402v-86.16h74.402v-63.598c0-13.801 1.578-26.422 4.57-37.824.094-.344.215-.66.309-1a117.76 117.76 0 012.953-9.356c.871-2.367 1.871-4.633 2.879-6.886.418-.942.785-1.93 1.226-2.851a101.02 101.02 0 014.762-8.734c.082-.137.153-.282.238-.418a94.52 94.52 0 0112.454-16.058c.109-.114.21-.242.32-.355 2.012-2.063 4.164-3.981 6.363-5.848.492-.418.95-.875 1.45-1.282 1.734-1.414 3.594-2.691 5.438-3.984 1.098-.766 2.148-1.586 3.281-2.305 1.195-.766 2.477-1.422 3.715-2.141 1.926-1.106 3.824-2.242 5.843-3.222.348-.176.727-.309 1.078-.481 15.566-7.359 33.754-11.175 53.918-11.175 31.524 0 58.641 2.402 66.481 3.441v77.039h-45.598c-35.762 0-42.722 17.039-42.722 42v55.039h76.457l8.902.02-11.118 86.14h-74.241V512h146.878C499.359 512 512 499.359 512 483.68V28.238C512 12.637 499.359 0 483.758 0z" fill="#4b4b4b"/></svg>